<svg width="20" height="20" viewBox="0 0 20 20" fill="none" xmlns="http://www.w3.org/2000/svg">
<path d="M6.95043 18.6471C4.17301 17.9956 2.00437 15.827 1.35287 13.0496C0.882371 11.0437 0.882372 8.95626 1.35287 6.95043C2.00437 4.17301 4.17301 2.00437 6.95043 1.35288C8.95625 0.882374 11.0437 0.882374 13.0496 1.35287C15.827 2.00437 17.9956 4.173 18.6471 6.95043C19.1176 8.95625 19.1176 11.0437 18.6471 13.0496C17.9956 15.827 15.827 17.9956 13.0496 18.6471C11.0437 19.1176 8.95626 19.1176 6.95043 18.6471Z" stroke="#0095FF" stroke-width="1.5"/>
<path d="M6.95043 18.6471C8.95625 19.1176 11.0437 19.1176 13.0496 18.6471C15.827 17.9956 17.9956 15.827 18.6471 13.0496C19.1176 11.0437 19.1176 8.95625 18.6471 6.95043C17.9956 4.173 15.827 2.00437 13.0496 1.35288C11.0437 0.882375 8.95625 0.882374 6.95043 1.35288C4.173 2.00437 2.00437 4.17301 1.35287 6.95043" stroke="white" stroke-width="1.5" stroke-linecap="round"/>
<path d="M10 13.5V9.5" stroke="#0095FF" stroke-width="1.5" stroke-linecap="round" stroke-linejoin="round"/>
<circle cx="10" cy="7" r="0.5" stroke="#0095FF" stroke-linecap="round" stroke-linejoin="round"/>
</svg>
