<svg width="20" height="20" viewBox="0 0 20 20" fill="none" xmlns="http://www.w3.org/2000/svg">
<path d="M10 3.8203C9.29734 3.8203 8.59468 3.90107 7.90603 4.0626C7.51302 4.15479 7.13776 4.29122 6.78571 4.46643M10 3.8203C10.7026 3.8203 11.4053 3.90107 12.0939 4.0626C12.4869 4.15479 12.8622 4.29122 13.2142 4.46643M10 3.8203V1M6.78571 4.46643V1M6.78571 4.46643C5.78153 4.96621 4.9662 5.78153 4.46641 6.78571M13.2142 4.46643V1M13.2142 4.46643C14.2184 4.96621 15.0337 5.78153 15.5335 6.78571M3.82027 10C3.82027 10.7027 3.90103 11.4053 4.06257 12.0939C4.15476 12.487 4.29119 12.8622 4.46641 13.2143M3.82027 10C3.82027 9.29735 3.90103 8.5947 4.06257 7.90606C4.15476 7.51304 4.29119 7.13777 4.46641 6.78571M3.82027 10H1M4.46641 6.78571H1M4.46641 13.2143H1M4.46641 13.2143C4.9662 14.2185 5.78153 15.0338 6.78571 15.5336M10 16.1797C10.7026 16.1797 11.4053 16.0989 12.0939 15.9374C12.4869 15.8452 12.8622 15.7088 13.2142 15.5336M10 16.1797C9.29734 16.1797 8.59468 16.0989 7.90604 15.9374C7.51302 15.8452 7.13776 15.7088 6.78571 15.5336M10 16.1797V19M6.78571 15.5336V19M13.2142 15.5336V19M13.2142 15.5336C14.2184 15.0338 15.0337 14.2185 15.5335 13.2143M16.1797 10C16.1797 9.29735 16.0989 8.5947 15.9374 7.90607C15.8452 7.51304 15.7087 7.13777 15.5335 6.78571M16.1797 10C16.1797 10.7027 16.0989 11.4053 15.9374 12.0939C15.8452 12.487 15.7087 12.8622 15.5335 13.2143M16.1797 10H19M15.5335 6.78571H19M15.5335 13.2143H19" stroke="white" stroke-width="1.5" stroke-linecap="round"/>
<path d="M7.22921 9.02283C7.43797 8.13286 8.13286 7.43797 9.02283 7.22921V7.22921C9.66555 7.07845 10.3344 7.07845 10.9772 7.22921V7.22921C11.8671 7.43797 12.562 8.13286 12.7708 9.02283V9.02283C12.9215 9.66555 12.9215 10.3344 12.7708 10.9772V10.9772C12.562 11.8671 11.8671 12.562 10.9772 12.7708V12.7708C10.3344 12.9215 9.66555 12.9215 9.02283 12.7708V12.7708C8.13287 12.562 7.43797 11.8671 7.22921 10.9772V10.9772C7.07845 10.3344 7.07845 9.66555 7.22921 9.02283V9.02283Z" stroke="#0095FF" stroke-width="1.5"/>
</svg>
