<svg width="21" height="20" viewBox="0 0 21 20" fill="none" xmlns="http://www.w3.org/2000/svg">
<path d="M1.38539 6.84875C2.05805 4.13983 4.20602 2.04534 6.93056 1.44162L7.38443 1.34105C9.4366 0.886317 11.5634 0.886317 13.6156 1.34105L14.0694 1.44162C16.794 2.04534 18.942 4.13984 19.6146 6.84875C20.1285 8.91815 20.1285 11.0819 19.6146 13.1512C18.942 15.8602 16.794 17.9547 14.0694 18.5584L13.6156 18.659C11.5634 19.1137 9.4366 19.1137 7.38443 18.659L6.93056 18.5584C4.20601 17.9547 2.05805 15.8602 1.38539 13.1513C0.871536 11.0819 0.871536 8.91815 1.38539 6.84875Z" stroke="#0095FF" stroke-width="1.5"/>
<path d="M7.38443 1.34105C9.4366 0.886317 11.5634 0.886317 13.6156 1.34105L14.0694 1.44162C16.794 2.04534 18.942 4.13984 19.6146 6.84875C20.1285 8.91815 20.1285 11.0819 19.6146 13.1512C18.942 15.8602 16.794 17.9547 14.0694 18.5584L13.6156 18.659C11.5634 19.1137 9.4366 19.1137 7.38443 18.659L6.93056 18.5584C4.20601 17.9547 2.05805 15.8602 1.38539 13.1513C1.12846 12.1166 1 11.0583 1 10" stroke="white" stroke-width="1.5" stroke-linecap="round"/>
<path fill-rule="evenodd" clip-rule="evenodd" d="M10.5002 5C10.8826 5 11.1926 5.29199 11.1926 5.65217V6.18573H11.2692C12.5567 6.18573 13.5 7.24015 13.5 8.41894C13.5 8.77912 13.19 9.07111 12.8077 9.07111C12.4253 9.07111 12.1154 8.77912 12.1154 8.41894C12.1154 7.85137 11.6811 7.49008 11.2692 7.49008H11.1926V9.54325L12.1273 9.86344C12.9767 10.1544 13.5 10.9457 13.5 11.7838C13.5 12.8506 12.6451 13.8142 11.4666 13.8142H11.1926V14.3478C11.1926 14.708 10.8826 15 10.5002 15C10.1179 15 9.80794 14.708 9.80794 14.3478V13.8142H9.73077C8.44328 13.8142 7.5 12.7598 7.5 11.581C7.5 11.2208 7.80996 10.9288 8.19231 10.9288C8.57466 10.9288 8.88462 11.2208 8.88462 11.581C8.88462 12.1486 9.31892 12.5098 9.73077 12.5098H9.80794V10.4568L8.87272 10.1365C8.0233 9.84551 7.5 9.05418 7.5 8.2161C7.5 7.14934 8.35491 6.18573 9.5334 6.18573H9.80794V5.65217C9.80794 5.29199 10.1179 5 10.5002 5ZM9.80794 7.49008H9.5334C9.23056 7.49008 8.88462 7.76055 8.88462 8.2161C8.88462 8.56446 9.10007 8.82645 9.3459 8.91066L9.80794 9.06894V7.49008ZM11.1926 10.9312V12.5098H11.4666C11.7694 12.5098 12.1154 12.2394 12.1154 11.7838C12.1154 11.4355 11.8999 11.1735 11.6541 11.0893L11.1926 10.9312Z" fill="#0095FF"/>
</svg>
