<svg width="18" height="20" viewBox="0 0 18 20" fill="none" xmlns="http://www.w3.org/2000/svg">
<path d="M12.8754 17.4874L13.0559 17.3625C13.6209 16.9719 13.9035 16.7765 14.1562 16.567C15.5294 15.4289 16.4518 13.8424 16.7588 12.0905C16.8153 11.7681 16.8446 11.4271 16.9033 10.7449L16.9337 10.3922C17.0309 9.26316 17.0212 8.1275 16.9048 7.00023L16.8687 6.65139C16.665 4.6787 15.4539 2.94971 13.6644 2.07663C10.7221 0.641124 7.27785 0.641124 4.33559 2.07663C2.54608 2.94971 1.33504 4.6787 1.13127 6.65139L1.09524 7.00023C0.978796 8.1275 0.969106 9.26316 1.0663 10.3922L1.09666 10.7449C1.15537 11.4271 1.18473 11.7681 1.24123 12.0905C1.54821 13.8424 2.47055 15.4289 3.8438 16.567C4.09652 16.7765 4.3791 16.9719 4.94406 17.3626L5.12461 17.4874C5.89273 18.0185 6.27682 18.2842 6.66175 18.4687C8.13929 19.1771 9.86071 19.1771 11.3382 18.4687C11.7232 18.2842 12.1073 18.0186 12.8754 17.4874Z" stroke="#0095FF" stroke-width="1.5"/>
<path d="M16.9033 10.7449L16.9337 10.3922C17.0309 9.26316 17.0212 8.1275 16.9048 7.00023L16.8687 6.65139C16.665 4.6787 15.4539 2.94971 13.6644 2.07663C10.7221 0.641124 7.27785 0.641124 4.33559 2.07663C2.54608 2.94971 1.33504 4.6787 1.13127 6.65139L1.09524 7.00023C0.978796 8.1275 0.969106 9.26316 1.0663 10.3922L1.09666 10.7449C1.15537 11.4271 1.18473 11.7681 1.24123 12.0905C1.54821 13.8424 2.47055 15.4289 3.8438 16.567C4.09652 16.7765 4.3791 16.9719 4.94406 17.3626L5.12461 17.4874C5.89273 18.0185 6.27682 18.2842 6.66175 18.4687" stroke="white" stroke-width="1.5" stroke-linecap="round"/>
<path d="M6.25 9.75L8.25 11.75L11.75 8" stroke="#0095FF" stroke-width="1.5" stroke-linecap="round" stroke-linejoin="round"/>
</svg>
