<svg width="20" height="20" viewBox="0 0 20 20" fill="none" xmlns="http://www.w3.org/2000/svg">
<path d="M7.65394 2.58646C8.5321 0.471179 11.4679 0.47118 12.3461 2.58646L12.9577 4.05983C13.3174 4.9261 14.107 5.52663 15.0227 5.63041L16.7297 5.82385C18.8853 6.06813 19.7756 8.7755 18.2013 10.2988L16.752 11.7012C16.1148 12.3177 15.8333 13.2258 16.0069 14.1045L16.3568 15.8758C16.7997 18.118 14.3977 19.8109 12.5018 18.5927L11.3571 17.8572C10.5276 17.3242 9.47236 17.3242 8.64291 17.8572L7.49819 18.5927C5.60234 19.8109 3.20031 18.118 3.64324 15.8758L3.99315 14.1045C4.16673 13.2258 3.88518 12.3177 3.24798 11.7012L1.79871 10.2988C0.224381 8.7755 1.11472 6.06813 3.27034 5.82385L4.97726 5.63041C5.89305 5.52663 6.68263 4.9261 7.04227 4.05983L7.65394 2.58646Z" stroke="#0095FF" stroke-width="1.5" stroke-linecap="round" stroke-linejoin="round"/>
<path d="M8.64291 17.8572L7.49819 18.5927C5.60234 19.8109 3.20031 18.118 3.64323 15.8758L3.99315 14.1045C4.16673 13.2258 3.88518 12.3177 3.24798 11.7012L1.79871 10.2988C0.224381 8.7755 1.11472 6.06813 3.27034 5.82385L4.97726 5.63041C5.89305 5.52663 6.68263 4.9261 7.04226 4.05983L7.65394 2.58646C8.5321 0.471179 11.4679 0.47118 12.3461 2.58646L12.9577 4.05983C13.3174 4.9261 14.107 5.52663 15.0227 5.63041L16.7297 5.82385C18.8853 6.06813 19.7756 8.7755 18.2013 10.2988L16.752 11.7012C16.1148 12.3177 15.8333 13.2258 16.0069 14.1045" stroke="white" stroke-width="1.5" stroke-linecap="round" stroke-linejoin="round"/>
</svg>
