<svg width="20" height="20" viewBox="0 0 20 20" fill="none" xmlns="http://www.w3.org/2000/svg">
<path d="M19 3H15M17 5L17 1" stroke="#0095FF" stroke-width="1.5" stroke-linecap="round"/>
<path d="M1 17.1115C1 14.6984 2.69732 12.643 5.00404 12.2627L5.21182 12.2284C7.05892 11.9239 8.94108 11.9239 10.7882 12.2284L10.996 12.2627C13.3027 12.643 15 14.6984 15 17.1115C15 18.1545 14.1815 19 13.1719 19H2.82813C1.81848 19 1 18.1545 1 17.1115Z" stroke="white" stroke-width="1.5"/>
<path d="M12.1667 4.9375C12.1667 7.11212 10.3385 8.875 8.08333 8.875C5.82817 8.875 4 7.11212 4 4.9375C4 2.76288 5.82817 1 8.08333 1C10.3385 1 12.1667 2.76288 12.1667 4.9375Z" stroke="#0095FF" stroke-width="1.5"/>
</svg>
