<svg width="18" height="16" viewBox="0 0 18 16" fill="none" xmlns="http://www.w3.org/2000/svg">
<path d="M16.9866 2.20879C17.1112 1.40332 16.3454 0.767554 15.6292 1.082L1.36482 7.34484C0.851228 7.57034 0.888796 8.34826 1.42147 8.51789L4.36315 9.45468C4.92458 9.63347 5.53253 9.54102 6.02279 9.20231L12.655 4.62027C12.855 4.4821 13.073 4.76646 12.9021 4.94263L8.12811 9.86465C7.66501 10.3421 7.75693 11.1512 8.31397 11.5005L13.659 14.8523C14.2585 15.2282 15.0297 14.8506 15.1418 14.1261L16.9866 2.20879Z" stroke="white"/>
<path d="M8.12823 9.86289C7.66513 10.3404 7.75705 11.1494 8.31409 11.4987L13.6591 14.8505C14.2586 15.2265 15.0298 14.8488 15.1419 14.1244L16.9867 2.20703" stroke="#0095FF"/>
<path d="M8.12823 9.86328C7.66513 10.3407 7.75705 11.1498 8.31409 11.4991L13.6591 14.8509C14.2586 15.2269 15.0298 14.8492 15.1419 14.1248" stroke="#0095FF"/>
</svg>
