<svg width="24" height="24" viewBox="0 0 24 24" fill="none" xmlns="http://www.w3.org/2000/svg">
<path d="M3.98389 11.6106L9.11798 18.5107C10.5955 20.4964 13.4045 20.4964 14.882 18.5107L20.0161 11.6106C21.328 9.84746 21.328 7.34218 20.0161 5.57906C18.0957 2.9981 13.6571 3.76465 12 6.54855C10.3429 3.76465 5.90428 2.9981 3.9839 5.57906C2.67204 7.34218 2.67203 9.84746 3.98389 11.6106Z" stroke="white" stroke-width="1.5" stroke-linecap="round" stroke-linejoin="round"/>
<path d="M20.0161 11.6106L14.882 18.5107C13.4045 20.4964 10.5955 20.4964 9.11798 18.5107L3.98389 11.6106C2.67203 9.84746 2.67204 7.34218 3.9839 5.57906C5.90428 2.9981 10.3429 3.76465 12 6.54855" stroke="white" stroke-width="1.5" stroke-linecap="round" stroke-linejoin="round"/>
</svg>
