<svg width="24" height="24" viewBox="0 0 24 24" fill="none" xmlns="http://www.w3.org/2000/svg">
<path d="M13.8031 3.30948C12.0439 2.89684 10.2132 2.89684 8.45407 3.30948C5.9014 3.90825 3.90825 5.9014 3.30948 8.45407C2.89684 10.2132 2.89684 12.0439 3.30948 13.8031C3.90825 16.3557 5.9014 18.3489 8.45407 18.9477C10.2132 19.3603 12.0439 19.3603 13.8031 18.9477C14.8355 18.7055 15.7764 18.2352 16.5706 17.5921L19.767 20.7884C20.049 21.0705 20.5064 21.0705 20.7884 20.7884C21.0705 20.5064 21.0705 20.049 20.7884 19.767L17.5921 16.5706C18.2352 15.7764 18.7055 14.8355 18.9477 13.8031C19.3603 12.0439 19.3603 10.2132 18.9477 8.45407C18.3489 5.9014 16.3557 3.90825 13.8031 3.30948Z" stroke="#202020" stroke-linecap="round"/>
</svg>
